PathFileType	4	(X/Y/Z)	C:/Users/opensim2020/Desktop/walking_exp_matlab/subject01_walking06_straight_03.trc	
DataRate	CameraRate	NumFrames	NumMarkers	Units	OrigDataRate	OrigDataStartFrame	OrigNumFrames	
100.00	100.00	4	43	mm	100.00	2130	206	
Frame#	Time	LFHD			RFHD			LBHD			RBHD			C7			T10			CLAV			STRN			RBAK			LSHO			LUPA			LELB			LFRM			LWRA			LWRB			LFIN			RSHO			RUPA			RELB			RFRM			RWRA			RWRB			RFIN			LASI			RASI			LPSI			RPSI			LTHI			LKNE			LTIB			LANK			LHEE			LTOE			RTHI			RKNE			RTIB			RANK			RHEE			RTOE			*39			*40			*41			*42			
		X1	Y1	Z1	X2	Y2	Z2	X3	Y3	Z3	X4	Y4	Z4	X5	Y5	Z5	X6	Y6	Z6	X7	Y7	Z7	X8	Y8	Z8	X9	Y9	Z9	X10	Y10	Z10	X11	Y11	Z11	X12	Y12	Z12	X13	Y13	Z13	X14	Y14	Z14	X15	Y15	Z15	X16	Y16	Z16	X17	Y17	Z17	X18	Y18	Z18	X19	Y19	Z19	X20	Y20	Z20	X21	Y21	Z21	X22	Y22	Z22	X23	Y23	Z23	X24	Y24	Z24	X25	Y25	Z25	X26	Y26	Z26	X27	Y27	Z27	X28	Y28	Z28	X29	Y29	Z29	X30	Y30	Z30	X31	Y31	Z31	X32	Y32	Z32	X33	Y33	Z33	X34	Y34	Z34	X35	Y35	Z35	X36	Y36	Z36	X37	Y37	Z37	X38	Y38	Z38	X39	Y39	Z39	X40	Y40	Z40	X41	Y41	Z41	X42	Y42	Z42	X43	Y43	Z43	

26	0.250	1431.13123	-771.33862	1664.50024	1541.72485	-741.69824	1672.99109	1456.81482	-881.73883	1610.69446	1574.02698	-853.30560	1618.51074	1494.73669	-901.50513	1421.11926	1504.65833	-933.82794	1129.12292	1483.83435	-756.98822	1356.35840	1477.02979	-712.91193	1202.25366	1576.88525	-950.30487	1228.45398	1326.86548	-828.15491	1384.41272	1247.58374	-876.49554	1199.82153	1253.79309	-907.66211	1055.68640	1226.78979	-899.20502	944.42346	1242.59766	-856.53894	809.81885	1217.45557	-910.39978	822.63422	1211.81592	-886.53497	739.16943	1639.96216	-811.50214	1382.18005	1746.86768	-855.28290	1184.10449	1761.76465	-842.98480	1060.27551	1799.96045	-784.69495	954.91400	1789.47778	-673.67352	867.45111	1827.18408	-716.86383	856.28772	1834.24890	-656.47363	798.83875	1388.80396	-763.56146	927.59308	1605.88293	-760.97552	920.25299	1441.15454	-948.90936	939.80249	1585.72290	-946.01288	942.17346	1324.25879	-743.24396	605.25220	1342.48926	-725.17657	472.89722	1333.16528	-751.46765	284.04333	1386.27234	-746.98969	65.33436	1442.97998	-785.18896	35.10704	1371.02039	-601.67151	36.25321	1689.55688	-856.10571	597.79706	1687.55444	-879.76508	439.09052	1695.90955	-1019.26666	327.53690	1666.82239	-1148.70703	162.62541	1608.71362	-1199.11047	156.72385	1691.98560	-1084.72180	36.72051	1521.04749	-759.84998	1705.25232	-3101.89453	1973.18762	1023.39221	-3140.60278	2012.55994	1021.98108			 
27	0.260	1427.27307	-763.61682	1664.82605	1537.81665	-733.73663	1673.88098	1452.93054	-873.68945	1611.26831	1570.15637	-845.40344	1619.38757	1491.68909	-893.57159	1421.83276	1502.45154	-925.98590	1130.00610	1480.65637	-749.09192	1357.05237	1474.14685	-704.98785	1202.92603	1574.61475	-942.12201	1229.45618	1323.87915	-820.14203	1384.80237	1244.50696	-867.97284	1200.15564	1250.89404	-898.15912	1055.54114	1224.10437	-888.51129	944.26447	1240.39441	-844.20850	810.18805	1215.09351	-898.21832	822.33411	1209.69128	-873.30280	739.13220	1636.86707	-803.12225	1383.44031	1744.45203	-848.19122	1185.93848	1757.93176	-838.06738	1061.62146	1795.84155	-780.96082	955.42365	1784.96008	-670.67004	866.83203	1822.90417	-713.89056	856.19739	1829.30969	-654.00543	797.81531	1385.99536	-755.37628	928.46997	1603.02124	-753.74707	920.88000	1439.39868	-941.22736	940.42596	1584.00574	-938.11572	942.26343	1322.73779	-738.85455	605.04944	1341.24402	-720.96716	472.76700	1332.36731	-748.97845	283.99097	1386.22632	-746.75061	65.31467	1442.59180	-785.40240	35.53758	1370.91174	-601.53516	35.94850	1688.18835	-840.40350	595.95129	1685.64771	-861.70599	437.72711	1694.27136	-1003.15222	329.17041	1664.90527	-1137.14636	168.45190	1606.58167	-1187.76917	164.88213	1690.61670	-1079.29187	40.13339	1516.95544	-751.87097	1705.93787	-3101.92432	1973.08423	1023.30499	-3140.66650	2012.52466	1022.01038			 
28	0.270	1423.35559	-755.12177	1665.47583	1534.03662	-725.61115	1674.60974	1449.22107	-865.61493	1611.86255	1566.39734	-837.37268	1620.29651	1488.69604	-885.59247	1422.55005	1500.18066	-918.25842	1130.79089	1477.79492	-741.12109	1357.89856	1471.44580	-697.08942	1203.58313	1572.15576	-934.02533	1230.36133	1320.98157	-812.15515	1385.11914	1241.36523	-859.23267	1200.29175	1247.97485	-888.64642	1055.26831	1221.32556	-877.58319	943.92285	1237.40479	-831.15887	811.06097	1212.54248	-885.54437	821.92859	1207.42615	-859.51154	739.01556	1633.88721	-794.90161	1384.62634	1742.07471	-841.25952	1187.68127	1754.26416	-833.08893	1062.91431	1791.88831	-777.27600	955.82147	1780.40503	-667.85309	866.01617	1818.50415	-711.09979	855.72589	1824.34790	-651.82990	796.45380	1384.05273	-748.44879	928.89209	1600.31165	-746.97992	921.29980	1437.68665	-933.81104	941.05316	1582.34863	-930.42120	942.30670	1321.24304	-734.67847	604.65210	1340.07507	-717.14465	472.45609	1331.57849	-746.87317	283.76190	1386.14050	-746.73334	65.25187	1442.49109	-785.56757	35.63694	1370.83435	-601.36639	35.72972	1686.50793	-825.18280	594.67621	1683.52197	-843.42108	436.51212	1692.86890	-986.99213	331.38498	1662.36011	-1124.89197	174.43147	1603.59106	-1175.71997	172.62613	1688.42749	-1072.31628	44.57885	1513.01697	-743.80481	1706.60107	-3101.97485	1973.10388	1023.62183	-3140.55566	2012.59106	1022.10950			 
29	0.280	1419.74353	-747.06110	1665.79639	1530.33081	-717.53625	1675.30249	1445.69458	-857.42255	1612.44019	1562.85132	-829.29547	1621.23962	1485.74268	-877.60773	1423.18896	1497.94153	-910.69055	1131.64990	1474.98523	-733.09760	1358.39795	1468.93262	-689.24182	1204.22363	1569.61035	-926.19348	1231.29919	1318.17493	-804.20807	1385.39246	1238.34399	-850.40302	1200.35095	1245.02637	-879.01917	1055.00134	1218.55237	-866.56036	943.40582	1235.42920	-818.45758	811.24176	1209.85925	-872.49127	821.46765	1205.08643	-845.15100	738.95020	1631.02539	-786.78845	1385.75244	1739.63574	-834.51093	1189.26526	1750.82690	-828.10071	1064.12866	1787.98096	-773.58521	956.04547	1775.90979	-665.24420	864.92767	1814.09412	-708.55029	855.07489	1819.38647	-650.00867	794.90637	1381.77502	-741.63129	929.00549	1597.68201	-740.43097	921.56439	1436.01733	-926.61963	941.60242	1580.87231	-923.46106	942.53387	1320.22900	-730.84100	604.28076	1338.84534	-713.77856	472.06381	1330.61047	-744.95282	283.47879	1386.12195	-746.67688	65.23340	1442.55249	-785.54272	35.57869	1370.70679	-601.31976	35.55149	1684.37415	-809.99255	593.55023	1681.29309	-825.20544	435.67542	1690.91846	-970.52466	333.65573	1659.27820	-1112.03650	180.42838	1600.22278	-1162.43127	180.02878	1686.56702	-1063.81702	49.14190	1509.26868	-735.59064	1707.28516	-3101.91284	1973.15967	1023.36383	-3140.55127	2012.56665	1022.05200			 
